<?xml version="1.0" standalone="no"?>
<!DOCTYPE svg PUBLIC "-//W3C//DTD SVG 20010904//EN"
 "http://www.w3.org/TR/2001/REC-SVG-20010904/DTD/svg10.dtd">
<svg version="1.0" xmlns="http://www.w3.org/2000/svg"
 width="90.000000pt" height="73.000000pt" viewBox="0 0 90.000000 73.000000"
 preserveAspectRatio="xMidYMid meet">

<g transform="translate(0.000000,73.000000) scale(0.100000,-0.100000)"
fill="#000000" stroke="none">
<path d="M400 668 c-22 -24 -27 -67 -9 -85 9 -9 3 -20 -25 -46 -47 -45 -48
-78 -3 -105 65 -39 134 -36 191 9 33 26 28 52 -20 96 -21 18 -31 34 -25 38 6
3 11 24 11 45 0 29 -6 43 -22 54 -32 23 -74 20 -98 -6z m81 -8 c36 -20 14 -90
-28 -90 -21 0 -53 29 -53 48 0 20 29 52 47 52 8 0 23 -5 34 -10z m19 -125 c28
-15 50 -42 50 -64 0 -18 -57 -41 -100 -41 -43 0 -100 26 -100 45 1 28 65 75
103 75 10 0 31 -7 47 -15z"/>
<path d="M448 384 c-5 -4 -8 -24 -8 -44 0 -34 -3 -37 -50 -57 -27 -12 -50 -26
-50 -32 0 -17 20 -13 70 13 l45 24 47 -24 c53 -27 58 -28 58 -14 0 5 -22 21
-49 35 -46 23 -50 28 -53 66 -2 22 -6 37 -10 33z"/>
<path d="M200 300 c-22 -22 -26 -60 -10 -90 8 -14 5 -21 -15 -34 -36 -24 -60
-73 -44 -92 49 -59 189 -59 238 0 16 19 -8 68 -44 92 -20 13 -23 20 -15 34 27
51 -5 110 -60 110 -17 0 -39 -9 -50 -20z m84 -16 c9 -8 16 -23 16 -31 0 -21
-29 -53 -48 -53 -22 0 -52 30 -52 51 0 23 26 49 50 49 10 0 26 -7 34 -16z m11
-118 c31 -13 55 -41 55 -65 0 -18 -57 -41 -100 -41 -41 0 -100 26 -100 43 0
21 24 50 53 62 41 18 50 18 92 1z"/>
<path d="M601 294 c-25 -31 -26 -52 -7 -80 13 -19 12 -22 -13 -37 -30 -18 -57
-68 -48 -90 9 -23 72 -47 125 -47 54 0 114 32 120 63 2 10 -13 34 -35 56 -35
35 -37 40 -26 62 38 73 -66 137 -116 73z m87 -6 c19 -19 15 -66 -7 -78 -31
-16 -49 -12 -67 15 -15 23 -15 27 0 50 18 27 54 33 74 13z m19 -128 c17 -10
37 -28 43 -39 28 -53 -132 -83 -181 -34 -20 19 -20 19 2 47 38 48 85 57 136
26z"/>
</g>
</svg>
