<?xml version="1.0" standalone="no"?>
<!DOCTYPE svg PUBLIC "-//W3C//DTD SVG 20010904//EN"
 "http://www.w3.org/TR/2001/REC-SVG-20010904/DTD/svg10.dtd">
<svg version="1.0" xmlns="http://www.w3.org/2000/svg"
 width="370.000000pt" height="90.000000pt" viewBox="0 0 370.000000 90.000000"
 preserveAspectRatio="xMidYMid meet">

<g transform="translate(0.000000,90.000000) scale(0.100000,-0.100000)"
fill="#000000" stroke="none">
<path d="M724 885 c-39 -20 -54 -37 -54 -64 0 -20 -30 -57 -121 -154 l-121
-127 -28 20 c-34 24 -87 26 -118 4 -13 -9 -33 -37 -45 -62 -21 -43 -25 -46
-81 -59 -103 -23 -156 -75 -156 -150 1 -69 78 -176 154 -212 112 -55 215 -2
231 119 11 82 14 88 47 99 53 19 78 49 78 95 0 23 -8 55 -19 72 l-18 30 111
123 c105 116 151 155 168 145 5 -3 8 0 8 6 0 6 4 9 8 6 13 -8 38 58 32 84 -7
28 -45 41 -76 25z m64 -31 c2 -11 -5 -27 -15 -35 -16 -13 -17 -12 -4 4 22 28
-11 22 -39 -8 -27 -29 -19 -45 13 -26 20 13 21 13 8 -2 -7 -10 -19 -17 -27
-17 -19 0 -27 19 -14 35 7 8 7 15 1 19 -5 4 -14 -2 -20 -11 -7 -12 -10 -13
-11 -5 0 8 14 27 32 43 36 34 71 35 76 3z m-403 -296 c14 -6 25 -16 25 -23 0
-19 -55 -65 -79 -65 -34 0 -74 -46 -68 -78 4 -21 -2 -35 -31 -64 l-36 -38 -26
25 c-21 20 -29 23 -37 13 -16 -19 112 -157 129 -140 10 10 10 16 0 30 -7 9
-15 23 -18 30 -10 20 55 82 85 82 31 0 71 36 71 64 0 12 14 37 30 56 l30 35
20 -24 c20 -23 26 -73 14 -106 -4 -9 -28 -27 -54 -40 -51 -26 -60 -39 -60 -88
-1 -44 -32 -109 -65 -135 -36 -28 -102 -29 -155 -2 -85 43 -157 150 -147 217
12 73 52 108 147 125 l63 12 23 52 c13 29 31 57 41 63 24 14 66 14 98 -1z"/>
<path d="M727 852 c-10 -11 -14 -23 -9 -26 12 -7 35 19 30 34 -2 7 -11 3 -21
-8z"/>
<path d="M766 629 c-99 -24 -150 -92 -151 -199 0 -81 8 -110 41 -150 41 -48
79 -63 159 -62 39 1 84 5 100 10 l30 8 3 107 3 107 -81 0 -80 0 0 -35 c0 -33
2 -35 35 -35 35 0 35 0 35 -45 l0 -45 -49 0 c-43 0 -53 4 -75 30 -50 60 -46
152 9 207 28 28 40 33 78 33 25 0 57 -4 70 -9 21 -8 26 -6 40 25 17 34 16 35
-6 43 -39 15 -121 20 -161 10z"/>
<path d="M1042 472 c2 -130 6 -163 21 -185 56 -85 202 -97 277 -22 l35 35 3
165 3 165 -45 0 -46 0 0 -150 c0 -137 -2 -152 -20 -170 -13 -13 -33 -20 -57
-20 -74 0 -83 22 -83 199 l0 141 -46 0 -46 0 4 -158z"/>
<path d="M1480 425 l0 -205 45 0 45 0 0 205 0 205 -45 0 -45 0 0 -205z"/>
<path d="M1630 595 l0 -35 55 0 55 0 0 -170 0 -170 45 0 45 0 0 170 0 170 55
0 55 0 0 35 0 35 -155 0 -155 0 0 -35z"/>
<path d="M2078 583 c-8 -26 -41 -119 -71 -205 l-56 -158 49 0 48 0 12 50 12
51 76 -3 76 -3 15 -48 15 -47 47 0 47 0 -40 113 c-22 61 -54 153 -71 202 l-32
90 -55 3 -56 3 -16 -48z m96 -96 c10 -34 21 -70 23 -79 5 -16 -2 -18 -47 -18
-45 0 -52 2 -47 18 2 9 13 45 22 80 10 34 21 62 24 62 3 0 14 -28 25 -63z"/>
<path d="M2400 425 l0 -205 45 0 45 0 0 81 c0 77 1 80 22 77 14 -2 37 -28 68
-78 47 -74 47 -75 93 -78 26 -2 47 0 47 3 0 3 -25 43 -55 88 l-55 82 23 20
c32 26 47 57 47 95 0 84 -59 120 -195 120 l-85 0 0 -205z m164 125 c21 -8 26
-16 26 -44 0 -40 -20 -56 -69 -56 -31 0 -31 0 -31 55 0 52 2 55 24 55 14 0 36
-4 50 -10z"/>
<path d="M2960 425 l0 -205 45 0 45 0 0 205 0 205 -45 0 -45 0 0 -205z"/>
<path d="M3212 533 c-18 -54 -50 -146 -71 -205 l-39 -108 47 0 47 0 15 48 15
47 74 0 75 0 14 -48 15 -47 47 0 48 0 -51 143 c-28 78 -60 170 -71 205 l-21
62 -56 0 -56 0 -32 -97z m116 -57 c12 -41 22 -77 22 -80 0 -3 -23 -6 -51 -6
-37 0 -50 4 -47 13 3 6 13 42 24 80 10 37 21 67 25 67 3 0 16 -33 27 -74z"/>
<path d="M2747 404 c-4 -4 -7 -20 -7 -36 l0 -28 81 0 80 0 -3 33 -3 32 -70 3
c-39 1 -74 0 -78 -4z"/>
</g>
</svg>
